<svg width="96" height="14" viewBox="0 0 96 14" fill="none" xmlns="http://www.w3.org/2000/svg">
<g id="wordmark">
<g id="Vector">
<path fill-rule="evenodd" clip-rule="evenodd" d="M0.108267 0.873111L3.55058 0.876038L3.54217 10.3165L9.349 10.3216L9.34644 13.0513L0.0976562 13.0432L0.108267 0.873111Z" fill="white"/>
<path fill-rule="evenodd" clip-rule="evenodd" d="M20.3744 6.97614C20.3762 4.87248 18.9344 3.49796 17.0916 3.49613C15.2488 3.49431 13.8044 4.86662 13.8029 6.97028C13.8007 9.07394 15.2425 10.4488 17.0853 10.4503C18.9281 10.4521 20.3725 9.07979 20.3744 6.97614ZM10.3255 6.96735C10.3288 3.31614 13.2 0.641379 17.0941 0.644672C20.9886 0.64833 23.8547 3.32821 23.8514 6.97906C23.8485 10.6303 20.9773 13.305 17.0828 13.3017C13.1886 13.2981 10.3222 10.6182 10.3255 6.96735Z" fill="white"/>
<path fill-rule="evenodd" clip-rule="evenodd" d="M34.2482 6.72765L37.2907 6.73057L37.2863 11.7724C35.877 12.7796 33.9468 13.3167 32.1735 13.3148C28.2965 13.3115 25.4652 10.6836 25.4681 6.98045C25.4718 3.27765 28.3079 0.654842 32.2543 0.658501C34.5318 0.66033 36.3742 1.44435 37.5724 2.88838L35.3798 4.86838C34.5464 3.94606 33.5904 3.51106 32.4255 3.50996C30.3394 3.50777 28.9474 4.88009 28.9455 6.98374C28.9434 9.03545 30.3332 10.4623 32.3846 10.4637C33.0281 10.4645 33.6365 10.3434 34.2453 10.0657L34.2482 6.72765Z" fill="white"/>
<path fill-rule="evenodd" clip-rule="evenodd" d="M39.9209 0.908635L43.3632 0.911562L43.3522 13.0813L39.9099 13.0784L39.9209 0.908635Z" fill="white"/>
<path fill-rule="evenodd" clip-rule="evenodd" d="M45.3873 11.988L46.5196 9.45084C47.597 10.1646 49.1263 10.6527 50.5345 10.6541C51.9602 10.6552 52.517 10.2561 52.5174 9.66487C52.5192 7.73499 45.5984 9.13694 45.6024 4.61682C45.6046 2.44365 47.3793 0.671818 50.9958 0.675111C52.5778 0.676574 54.2117 1.04279 55.4106 1.73938L54.3477 4.29414C53.1836 3.66743 52.0363 3.35316 50.9757 3.35243C49.5327 3.35133 49.0107 3.83755 49.0103 4.44596C49.0085 6.30633 55.9121 4.92157 55.9078 9.40694C55.9059 11.5282 54.1312 13.3347 50.5151 13.3315C48.5157 13.3296 46.5342 12.7889 45.3873 11.988Z" fill="white"/>
<path fill-rule="evenodd" clip-rule="evenodd" d="M65.4212 5.43414C65.4219 4.30401 64.7099 3.64292 63.2842 3.64145L61.3719 3.63999L61.3686 7.20377L63.2809 7.2056C64.7066 7.20706 65.4201 6.54706 65.4212 5.43414ZM68.8982 5.43743C68.8957 8.20145 66.8081 9.92096 63.4873 9.91804L61.3664 9.91584L61.3635 13.0977L57.9212 13.0944L57.9318 0.924623L63.4953 0.929379C66.8162 0.932672 68.9008 2.65548 68.8982 5.43743Z" fill="white"/>
<path fill-rule="evenodd" clip-rule="evenodd" d="M80.5973 7.02973C80.5991 4.92607 79.1573 3.55156 77.3145 3.54973C75.4717 3.5479 74.0273 4.92022 74.0255 7.02388C74.0237 9.12754 75.4655 10.5024 77.3083 10.5039C79.1515 10.5057 80.5955 9.13339 80.5973 7.02973ZM70.5484 7.02095C70.5517 3.3701 73.4229 0.694977 77.3171 0.69827C81.2116 0.701928 84.0777 3.38181 84.0744 7.03303C84.0711 10.6839 81.1999 13.3586 77.3057 13.3553C73.4112 13.3517 70.5451 10.6718 70.5484 7.02095Z" fill="white"/>
<path fill-rule="evenodd" clip-rule="evenodd" d="M88.7368 3.68166L84.9989 3.67837L85.0011 0.948733L95.9021 0.958611L95.8995 3.68788L92.1791 3.68459L92.1707 13.1251L88.7284 13.1218L88.7368 3.68166Z" fill="white"/>
</g>
</g>
</svg>
